<svg fill="none" height="40" viewBox="0 0 40 40" width="40" xmlns="http://www.w3.org/2000/svg" xmlns:xlink="http://www.w3.org/1999/xlink"><clipPath id="a"><rect height="40" rx="8" width="40"/></clipPath><g clip-path="url(#a)"><rect fill="#ffd600" height="40" rx="8" width="40"/><path d="m0 10c0-5.52285 4.47715-10 10-10h20c5.5228 0 10 4.47715 10 10v20c0 5.5228-4.4772 10-10 10h-20c-5.52285 0-10-4.4772-10-10z" fill="#ffd600"/><path d="m28.4375 10.3125h-16.4632v3.9012h12.5636v3.6513l-.0549.0549.0124.0107-7.8488 7.8291h-.872v-4.8358h.0035c.7923 0 1.5616.1046 2.2901.305l3.0222-3.0359c-1.6166-.7519-3.4175-1.1704-5.3123-1.1704h-3.9031v12.6383h6.3864l4.8142-4.8163c.9235 1.3885 1.4623 3.0536 1.4623 4.8429h3.8996c0-2.8656-.9572-5.5132-2.5684-7.6376l2.5684-2.5695z" fill="#010100"/></g></svg>